<svg width="24" height="24" viewBox="0 0 24 24" fill="none" xmlns="http://www.w3.org/2000/svg">
<path d="M10.7285 13.4447C11.7944 14.5261 13.0842 15.361 14.5072 15.8907L16.4323 14.3588C16.4894 14.3195 16.5571 14.2984 16.6264 14.2984C16.6957 14.2984 16.7633 14.3195 16.8204 14.3588L20.3949 16.6618C20.5306 16.7434 20.6454 16.8554 20.7304 16.989C20.8154 17.1226 20.8681 17.2741 20.8845 17.4316C20.9008 17.5891 20.8803 17.7482 20.8246 17.8965C20.7689 18.0447 20.6794 18.1779 20.5634 18.2856L18.8885 19.9401C18.6486 20.1771 18.3538 20.351 18.0304 20.4463C17.7069 20.5417 17.3649 20.5555 17.0349 20.4864C13.7424 19.8064 10.7076 18.2139 8.27742 15.8907C5.90116 13.5444 4.2568 10.5591 3.54381 7.29666C3.47337 6.97171 3.48807 6.63408 3.58648 6.31648C3.68489 5.99888 3.86368 5.71209 4.10551 5.4839L5.84168 3.809C5.94912 3.6986 6.08014 3.61393 6.22494 3.56133C6.36973 3.50874 6.52455 3.48958 6.6778 3.5053C6.83105 3.52102 6.97876 3.5712 7.10987 3.65209C7.24097 3.73299 7.35208 3.84249 7.43487 3.97241L9.81444 7.50092C9.85549 7.55632 9.87764 7.62345 9.87764 7.69241C9.87764 7.76136 9.85549 7.82849 9.81444 7.8839L8.24678 9.76815C8.79091 11.1627 9.63865 12.4186 10.7285 13.4447Z" stroke="#E39B2F" stroke-width="2"/>
</svg>
