<svg width="529" height="131" viewBox="0 0 529 131" fill="none" xmlns="http://www.w3.org/2000/svg">
<g clip-path="url(#clip0_290_319)">
<mask id="path-1-outside-1_290_319" maskUnits="userSpaceOnUse" x="158" y="41" width="264" height="46" fill="black">
<rect fill="white" x="158" y="41" width="264" height="46"/>
<path d="M161.285 84.3229C160.66 84.3229 160.125 84.1133 159.68 83.6943C159.227 83.2824 159 82.7875 159 82.2094V44.1134C159 43.4993 159.215 42.9935 159.644 42.5961C160.074 42.1987 160.621 42 161.285 42H188.76C189.424 42 189.971 42.1879 190.401 42.5636C190.83 42.9465 191.045 43.4451 191.045 44.0592C191.045 44.6011 190.83 45.0708 190.401 45.4682C189.971 45.8656 189.424 46.0643 188.76 46.0643H163.57V61.0209H181.906C182.57 61.0209 183.117 61.2196 183.546 61.617C183.976 62.0144 184.191 62.5021 184.191 63.0802C184.191 63.6582 183.976 64.1459 183.546 64.5433C183.117 64.9407 182.57 65.1394 181.906 65.1394H163.57V82.2094C163.57 82.7875 163.355 83.2824 162.925 83.6943C162.495 84.1133 161.949 84.3229 161.285 84.3229ZM206.335 84.3229H205.574C204.012 84.3229 202.613 83.9255 201.379 83.1307C200.153 82.3359 199.196 81.234 198.509 79.8251C197.829 78.4161 197.489 76.7904 197.489 74.9479V44.0592C197.489 43.4451 197.692 42.9465 198.099 42.5636C198.513 42.1879 199.052 42 199.715 42C200.379 42 200.914 42.1879 201.321 42.5636C201.735 42.9465 201.942 43.4451 201.942 44.0592V74.9479C201.942 76.5014 202.281 77.7658 202.961 78.7412C203.648 79.7167 204.519 80.2044 205.574 80.2044H207.038C207.624 80.2044 208.093 80.3922 208.444 80.768C208.796 81.1509 208.972 81.6495 208.972 82.2636C208.972 82.8778 208.726 83.3727 208.233 83.7485C207.749 84.1314 207.116 84.3229 206.335 84.3229ZM228.011 84.5938C224.887 84.5938 222.09 83.9435 219.622 82.643C217.162 81.3424 215.232 79.5541 213.834 77.2781C212.42 75.0021 211.713 72.419 211.713 69.5288C211.713 66.6025 212.42 64.0014 213.834 61.7254C215.232 59.4494 217.162 57.6611 219.622 56.3605C222.09 55.0599 224.887 54.4097 228.011 54.4097C231.136 54.4097 233.916 55.0599 236.354 56.3605C238.798 57.6611 240.72 59.4494 242.118 61.7254C243.524 64.0014 244.247 66.6025 244.286 69.5288C244.286 72.419 243.575 75.0021 242.153 77.2781C240.732 79.5541 238.798 81.3424 236.354 82.643C233.916 83.9435 231.136 84.5938 228.011 84.5938ZM228.011 80.8005C230.276 80.8005 232.307 80.3128 234.104 79.3373C235.9 78.3619 237.303 77.0252 238.31 75.3272C239.326 73.6293 239.833 71.6965 239.833 69.5288C239.833 67.3612 239.326 65.4176 238.31 63.6979C237.303 61.9855 235.9 60.6416 234.104 59.6661C232.307 58.6907 230.276 58.203 228.011 58.203C225.738 58.203 223.703 58.6907 221.907 59.6661C220.118 60.6416 218.704 61.9855 217.665 63.6979C216.627 65.4176 216.107 67.3612 216.107 69.5288C216.107 71.6965 216.627 73.6293 217.665 75.3272C218.704 77.0252 220.118 78.3619 221.907 79.3373C223.703 80.3128 225.738 80.8005 228.011 80.8005ZM267.66 84.5938C264.536 84.5938 261.744 83.9435 259.283 82.643C256.823 81.3424 254.889 79.5541 253.483 77.2781C252.077 75.0021 251.374 72.419 251.374 69.5288C251.374 66.6025 252.077 64.0014 253.483 61.7254C254.889 59.4494 256.823 57.6611 259.283 56.3605C261.744 55.0599 264.536 54.4097 267.66 54.4097C270.785 54.4097 273.57 55.0599 276.014 56.3605C278.452 57.6611 280.373 59.4494 281.779 61.7254C283.185 64.0014 283.908 66.6025 283.947 69.5288C283.947 72.419 283.236 75.0021 281.814 77.2781C280.385 79.5541 278.452 81.3424 276.014 82.643C273.57 83.9435 270.785 84.5938 267.66 84.5938ZM267.66 80.8005C269.926 80.8005 271.957 80.3128 273.753 79.3373C275.55 78.3619 276.956 77.0252 277.971 75.3272C278.987 73.6293 279.494 71.6965 279.494 69.5288C279.494 67.3612 278.987 65.4176 277.971 63.6979C276.956 61.9855 275.55 60.6416 273.753 59.6661C271.957 58.6907 269.926 58.203 267.66 58.203C265.395 58.203 263.364 58.6907 261.568 59.6661C259.771 60.6416 258.357 61.9855 257.326 63.6979C256.287 65.4176 255.768 67.3612 255.768 69.5288C255.768 71.6965 256.287 73.6293 257.326 75.3272C258.357 77.0252 259.771 78.3619 261.568 79.3373C263.364 80.3128 265.395 80.8005 267.66 80.8005ZM297.186 66.0606H294.609C294.726 63.8208 295.359 61.8157 296.507 60.0455C297.663 58.2752 299.167 56.8844 301.018 55.8728C302.877 54.8612 304.939 54.3555 307.204 54.3555C309.001 54.3555 310.387 54.5903 311.364 55.0599C312.34 55.5296 312.711 56.216 312.477 57.1192C312.321 57.6611 312.059 58.0224 311.692 58.203C311.317 58.3836 310.864 58.4559 310.333 58.4198C309.809 58.3836 309.216 58.3475 308.552 58.3114C306.365 58.1307 304.42 58.3367 302.717 58.9291C301.022 59.5289 299.674 60.4429 298.675 61.6712C297.683 62.8995 297.186 64.3627 297.186 66.0606ZM294.96 84.3229C294.257 84.3229 293.711 84.1422 293.32 83.781C292.929 83.4197 292.734 82.9139 292.734 82.2636V56.7398C292.734 56.0896 292.929 55.5838 293.32 55.2225C293.711 54.8612 294.257 54.6806 294.96 54.6806C295.663 54.6806 296.21 54.8612 296.601 55.2225C296.991 55.5838 297.186 56.0896 297.186 56.7398V82.2636C297.186 82.9139 296.991 83.4197 296.601 83.781C296.21 84.1422 295.663 84.3229 294.96 84.3229ZM338.371 85.1899C334.817 85.1899 331.661 84.5577 328.904 83.2933C326.154 82.0288 324.006 80.2766 322.459 78.0368C320.921 75.7969 320.151 73.2319 320.151 70.3417V44.1134C320.151 43.4993 320.366 42.9935 320.796 42.5961C321.225 42.1987 321.772 42 322.436 42C323.1 42 323.647 42.1987 324.076 42.5961C324.506 42.9935 324.721 43.4993 324.721 44.1134V70.3417C324.721 72.4732 325.295 74.3518 326.443 75.9775C327.599 77.6032 329.212 78.8785 331.282 79.8034C333.352 80.721 335.715 81.1798 338.371 81.1798C340.987 81.1798 343.311 80.721 345.342 79.8034C347.373 78.8785 348.962 77.6032 350.111 75.9775C351.267 74.3518 351.845 72.4732 351.845 70.3417V44.1134C351.845 43.4993 352.06 42.9935 352.489 42.5961C352.919 42.1987 353.466 42 354.13 42C354.833 42 355.387 42.1987 355.793 42.5961C356.207 42.9935 356.414 43.4993 356.414 44.1134V70.3417C356.414 73.2319 355.641 75.7969 354.094 78.0368C352.556 80.2766 350.427 82.0288 347.709 83.2933C344.998 84.5577 341.886 85.1899 338.371 85.1899ZM391.26 57.6611L371.224 74.406L368.482 71.6423L388.506 54.8974C388.975 54.5 389.463 54.3085 389.971 54.3229C390.486 54.3446 390.955 54.5722 391.377 55.0057C391.806 55.4393 392.013 55.8981 391.998 56.3822C391.974 56.8735 391.728 57.2998 391.26 57.6611ZM369.76 84.3229C369.103 84.3229 368.568 84.1314 368.154 83.7485C367.74 83.3727 367.533 82.8778 367.533 82.2636V44.0592C367.533 43.4451 367.74 42.9465 368.154 42.5636C368.568 42.1879 369.103 42 369.76 42C370.424 42 370.963 42.1879 371.377 42.5636C371.791 42.9465 371.997 43.4451 371.997 44.0592V82.2636C371.997 82.8778 371.791 83.3727 371.377 83.7485C370.963 84.1314 370.424 84.3229 369.76 84.3229ZM391.435 84.0519C390.928 84.4493 390.404 84.6227 389.865 84.5722C389.311 84.5143 388.838 84.2506 388.448 83.781L375.384 68.9327L378.547 66.3316L391.728 81.3424C392.119 81.7759 392.295 82.2347 392.256 82.7188C392.224 83.2102 391.951 83.6545 391.435 84.0519ZM405.495 66.0606H402.918C403.035 63.8208 403.672 61.8157 404.828 60.0455C405.976 58.2752 407.479 56.8844 409.339 55.8728C411.19 54.8612 413.248 54.3555 415.513 54.3555C417.31 54.3555 418.696 54.5903 419.673 55.0599C420.649 55.5296 421.02 56.216 420.786 57.1192C420.63 57.6611 420.368 58.0224 420.001 58.203C419.626 58.3836 419.177 58.4559 418.653 58.4198C418.122 58.3836 417.525 58.3475 416.861 58.3114C414.674 58.1307 412.732 58.3367 411.037 58.9291C409.335 59.5289 407.987 60.4429 406.995 61.6712C405.995 62.8995 405.495 64.3627 405.495 66.0606ZM403.269 84.3229C402.566 84.3229 402.02 84.1422 401.629 83.781C401.238 83.4197 401.043 82.9139 401.043 82.2636V56.7398C401.043 56.0896 401.238 55.5838 401.629 55.2225C402.02 54.8612 402.566 54.6806 403.269 54.6806C403.972 54.6806 404.519 54.8612 404.91 55.2225C405.3 55.5838 405.495 56.0896 405.495 56.7398V82.2636C405.495 82.9139 405.3 83.4197 404.91 83.781C404.519 84.1422 403.972 84.3229 403.269 84.3229Z"/>
</mask>
<path d="M161.285 84.3229C160.66 84.3229 160.125 84.1133 159.68 83.6943C159.227 83.2824 159 82.7875 159 82.2094V44.1134C159 43.4993 159.215 42.9935 159.644 42.5961C160.074 42.1987 160.621 42 161.285 42H188.76C189.424 42 189.971 42.1879 190.401 42.5636C190.83 42.9465 191.045 43.4451 191.045 44.0592C191.045 44.6011 190.83 45.0708 190.401 45.4682C189.971 45.8656 189.424 46.0643 188.76 46.0643H163.57V61.0209H181.906C182.57 61.0209 183.117 61.2196 183.546 61.617C183.976 62.0144 184.191 62.5021 184.191 63.0802C184.191 63.6582 183.976 64.1459 183.546 64.5433C183.117 64.9407 182.57 65.1394 181.906 65.1394H163.57V82.2094C163.57 82.7875 163.355 83.2824 162.925 83.6943C162.495 84.1133 161.949 84.3229 161.285 84.3229ZM206.335 84.3229H205.574C204.012 84.3229 202.613 83.9255 201.379 83.1307C200.153 82.3359 199.196 81.234 198.509 79.8251C197.829 78.4161 197.489 76.7904 197.489 74.9479V44.0592C197.489 43.4451 197.692 42.9465 198.099 42.5636C198.513 42.1879 199.052 42 199.715 42C200.379 42 200.914 42.1879 201.321 42.5636C201.735 42.9465 201.942 43.4451 201.942 44.0592V74.9479C201.942 76.5014 202.281 77.7658 202.961 78.7412C203.648 79.7167 204.519 80.2044 205.574 80.2044H207.038C207.624 80.2044 208.093 80.3922 208.444 80.768C208.796 81.1509 208.972 81.6495 208.972 82.2636C208.972 82.8778 208.726 83.3727 208.233 83.7485C207.749 84.1314 207.116 84.3229 206.335 84.3229ZM228.011 84.5938C224.887 84.5938 222.09 83.9435 219.622 82.643C217.162 81.3424 215.232 79.5541 213.834 77.2781C212.42 75.0021 211.713 72.419 211.713 69.5288C211.713 66.6025 212.42 64.0014 213.834 61.7254C215.232 59.4494 217.162 57.6611 219.622 56.3605C222.09 55.0599 224.887 54.4097 228.011 54.4097C231.136 54.4097 233.916 55.0599 236.354 56.3605C238.798 57.6611 240.72 59.4494 242.118 61.7254C243.524 64.0014 244.247 66.6025 244.286 69.5288C244.286 72.419 243.575 75.0021 242.153 77.2781C240.732 79.5541 238.798 81.3424 236.354 82.643C233.916 83.9435 231.136 84.5938 228.011 84.5938ZM228.011 80.8005C230.276 80.8005 232.307 80.3128 234.104 79.3373C235.9 78.3619 237.303 77.0252 238.31 75.3272C239.326 73.6293 239.833 71.6965 239.833 69.5288C239.833 67.3612 239.326 65.4176 238.31 63.6979C237.303 61.9855 235.9 60.6416 234.104 59.6661C232.307 58.6907 230.276 58.203 228.011 58.203C225.738 58.203 223.703 58.6907 221.907 59.6661C220.118 60.6416 218.704 61.9855 217.665 63.6979C216.627 65.4176 216.107 67.3612 216.107 69.5288C216.107 71.6965 216.627 73.6293 217.665 75.3272C218.704 77.0252 220.118 78.3619 221.907 79.3373C223.703 80.3128 225.738 80.8005 228.011 80.8005ZM267.66 84.5938C264.536 84.5938 261.744 83.9435 259.283 82.643C256.823 81.3424 254.889 79.5541 253.483 77.2781C252.077 75.0021 251.374 72.419 251.374 69.5288C251.374 66.6025 252.077 64.0014 253.483 61.7254C254.889 59.4494 256.823 57.6611 259.283 56.3605C261.744 55.0599 264.536 54.4097 267.66 54.4097C270.785 54.4097 273.57 55.0599 276.014 56.3605C278.452 57.6611 280.373 59.4494 281.779 61.7254C283.185 64.0014 283.908 66.6025 283.947 69.5288C283.947 72.419 283.236 75.0021 281.814 77.2781C280.385 79.5541 278.452 81.3424 276.014 82.643C273.57 83.9435 270.785 84.5938 267.66 84.5938ZM267.66 80.8005C269.926 80.8005 271.957 80.3128 273.753 79.3373C275.55 78.3619 276.956 77.0252 277.971 75.3272C278.987 73.6293 279.494 71.6965 279.494 69.5288C279.494 67.3612 278.987 65.4176 277.971 63.6979C276.956 61.9855 275.55 60.6416 273.753 59.6661C271.957 58.6907 269.926 58.203 267.66 58.203C265.395 58.203 263.364 58.6907 261.568 59.6661C259.771 60.6416 258.357 61.9855 257.326 63.6979C256.287 65.4176 255.768 67.3612 255.768 69.5288C255.768 71.6965 256.287 73.6293 257.326 75.3272C258.357 77.0252 259.771 78.3619 261.568 79.3373C263.364 80.3128 265.395 80.8005 267.66 80.8005ZM297.186 66.0606H294.609C294.726 63.8208 295.359 61.8157 296.507 60.0455C297.663 58.2752 299.167 56.8844 301.018 55.8728C302.877 54.8612 304.939 54.3555 307.204 54.3555C309.001 54.3555 310.387 54.5903 311.364 55.0599C312.34 55.5296 312.711 56.216 312.477 57.1192C312.321 57.6611 312.059 58.0224 311.692 58.203C311.317 58.3836 310.864 58.4559 310.333 58.4198C309.809 58.3836 309.216 58.3475 308.552 58.3114C306.365 58.1307 304.42 58.3367 302.717 58.9291C301.022 59.5289 299.674 60.4429 298.675 61.6712C297.683 62.8995 297.186 64.3627 297.186 66.0606ZM294.96 84.3229C294.257 84.3229 293.711 84.1422 293.32 83.781C292.929 83.4197 292.734 82.9139 292.734 82.2636V56.7398C292.734 56.0896 292.929 55.5838 293.32 55.2225C293.711 54.8612 294.257 54.6806 294.96 54.6806C295.663 54.6806 296.21 54.8612 296.601 55.2225C296.991 55.5838 297.186 56.0896 297.186 56.7398V82.2636C297.186 82.9139 296.991 83.4197 296.601 83.781C296.21 84.1422 295.663 84.3229 294.96 84.3229ZM338.371 85.1899C334.817 85.1899 331.661 84.5577 328.904 83.2933C326.154 82.0288 324.006 80.2766 322.459 78.0368C320.921 75.7969 320.151 73.2319 320.151 70.3417V44.1134C320.151 43.4993 320.366 42.9935 320.796 42.5961C321.225 42.1987 321.772 42 322.436 42C323.1 42 323.647 42.1987 324.076 42.5961C324.506 42.9935 324.721 43.4993 324.721 44.1134V70.3417C324.721 72.4732 325.295 74.3518 326.443 75.9775C327.599 77.6032 329.212 78.8785 331.282 79.8034C333.352 80.721 335.715 81.1798 338.371 81.1798C340.987 81.1798 343.311 80.721 345.342 79.8034C347.373 78.8785 348.962 77.6032 350.111 75.9775C351.267 74.3518 351.845 72.4732 351.845 70.3417V44.1134C351.845 43.4993 352.06 42.9935 352.489 42.5961C352.919 42.1987 353.466 42 354.13 42C354.833 42 355.387 42.1987 355.793 42.5961C356.207 42.9935 356.414 43.4993 356.414 44.1134V70.3417C356.414 73.2319 355.641 75.7969 354.094 78.0368C352.556 80.2766 350.427 82.0288 347.709 83.2933C344.998 84.5577 341.886 85.1899 338.371 85.1899ZM391.26 57.6611L371.224 74.406L368.482 71.6423L388.506 54.8974C388.975 54.5 389.463 54.3085 389.971 54.3229C390.486 54.3446 390.955 54.5722 391.377 55.0057C391.806 55.4393 392.013 55.8981 391.998 56.3822C391.974 56.8735 391.728 57.2998 391.26 57.6611ZM369.76 84.3229C369.103 84.3229 368.568 84.1314 368.154 83.7485C367.74 83.3727 367.533 82.8778 367.533 82.2636V44.0592C367.533 43.4451 367.74 42.9465 368.154 42.5636C368.568 42.1879 369.103 42 369.76 42C370.424 42 370.963 42.1879 371.377 42.5636C371.791 42.9465 371.997 43.4451 371.997 44.0592V82.2636C371.997 82.8778 371.791 83.3727 371.377 83.7485C370.963 84.1314 370.424 84.3229 369.76 84.3229ZM391.435 84.0519C390.928 84.4493 390.404 84.6227 389.865 84.5722C389.311 84.5143 388.838 84.2506 388.448 83.781L375.384 68.9327L378.547 66.3316L391.728 81.3424C392.119 81.7759 392.295 82.2347 392.256 82.7188C392.224 83.2102 391.951 83.6545 391.435 84.0519ZM405.495 66.0606H402.918C403.035 63.8208 403.672 61.8157 404.828 60.0455C405.976 58.2752 407.479 56.8844 409.339 55.8728C411.19 54.8612 413.248 54.3555 415.513 54.3555C417.31 54.3555 418.696 54.5903 419.673 55.0599C420.649 55.5296 421.02 56.216 420.786 57.1192C420.63 57.6611 420.368 58.0224 420.001 58.203C419.626 58.3836 419.177 58.4559 418.653 58.4198C418.122 58.3836 417.525 58.3475 416.861 58.3114C414.674 58.1307 412.732 58.3367 411.037 58.9291C409.335 59.5289 407.987 60.4429 406.995 61.6712C405.995 62.8995 405.495 64.3627 405.495 66.0606ZM403.269 84.3229C402.566 84.3229 402.02 84.1422 401.629 83.781C401.238 83.4197 401.043 82.9139 401.043 82.2636V56.7398C401.043 56.0896 401.238 55.5838 401.629 55.2225C402.02 54.8612 402.566 54.6806 403.269 54.6806C403.972 54.6806 404.519 54.8612 404.91 55.2225C405.3 55.5838 405.495 56.0896 405.495 56.7398V82.2636C405.495 82.9139 405.3 83.4197 404.91 83.781C404.519 84.1422 403.972 84.3229 403.269 84.3229Z" fill="#EC6608"/>
<path d="M161.285 84.3229C160.66 84.3229 160.125 84.1133 159.68 83.6943C159.227 83.2824 159 82.7875 159 82.2094V44.1134C159 43.4993 159.215 42.9935 159.644 42.5961C160.074 42.1987 160.621 42 161.285 42H188.76C189.424 42 189.971 42.1879 190.401 42.5636C190.83 42.9465 191.045 43.4451 191.045 44.0592C191.045 44.6011 190.83 45.0708 190.401 45.4682C189.971 45.8656 189.424 46.0643 188.76 46.0643H163.57V61.0209H181.906C182.57 61.0209 183.117 61.2196 183.546 61.617C183.976 62.0144 184.191 62.5021 184.191 63.0802C184.191 63.6582 183.976 64.1459 183.546 64.5433C183.117 64.9407 182.57 65.1394 181.906 65.1394H163.57V82.2094C163.57 82.7875 163.355 83.2824 162.925 83.6943C162.495 84.1133 161.949 84.3229 161.285 84.3229ZM206.335 84.3229H205.574C204.012 84.3229 202.613 83.9255 201.379 83.1307C200.153 82.3359 199.196 81.234 198.509 79.8251C197.829 78.4161 197.489 76.7904 197.489 74.9479V44.0592C197.489 43.4451 197.692 42.9465 198.099 42.5636C198.513 42.1879 199.052 42 199.715 42C200.379 42 200.914 42.1879 201.321 42.5636C201.735 42.9465 201.942 43.4451 201.942 44.0592V74.9479C201.942 76.5014 202.281 77.7658 202.961 78.7412C203.648 79.7167 204.519 80.2044 205.574 80.2044H207.038C207.624 80.2044 208.093 80.3922 208.444 80.768C208.796 81.1509 208.972 81.6495 208.972 82.2636C208.972 82.8778 208.726 83.3727 208.233 83.7485C207.749 84.1314 207.116 84.3229 206.335 84.3229ZM228.011 84.5938C224.887 84.5938 222.09 83.9435 219.622 82.643C217.162 81.3424 215.232 79.5541 213.834 77.2781C212.42 75.0021 211.713 72.419 211.713 69.5288C211.713 66.6025 212.42 64.0014 213.834 61.7254C215.232 59.4494 217.162 57.6611 219.622 56.3605C222.09 55.0599 224.887 54.4097 228.011 54.4097C231.136 54.4097 233.916 55.0599 236.354 56.3605C238.798 57.6611 240.72 59.4494 242.118 61.7254C243.524 64.0014 244.247 66.6025 244.286 69.5288C244.286 72.419 243.575 75.0021 242.153 77.2781C240.732 79.5541 238.798 81.3424 236.354 82.643C233.916 83.9435 231.136 84.5938 228.011 84.5938ZM228.011 80.8005C230.276 80.8005 232.307 80.3128 234.104 79.3373C235.9 78.3619 237.303 77.0252 238.31 75.3272C239.326 73.6293 239.833 71.6965 239.833 69.5288C239.833 67.3612 239.326 65.4176 238.31 63.6979C237.303 61.9855 235.9 60.6416 234.104 59.6661C232.307 58.6907 230.276 58.203 228.011 58.203C225.738 58.203 223.703 58.6907 221.907 59.6661C220.118 60.6416 218.704 61.9855 217.665 63.6979C216.627 65.4176 216.107 67.3612 216.107 69.5288C216.107 71.6965 216.627 73.6293 217.665 75.3272C218.704 77.0252 220.118 78.3619 221.907 79.3373C223.703 80.3128 225.738 80.8005 228.011 80.8005ZM267.66 84.5938C264.536 84.5938 261.744 83.9435 259.283 82.643C256.823 81.3424 254.889 79.5541 253.483 77.2781C252.077 75.0021 251.374 72.419 251.374 69.5288C251.374 66.6025 252.077 64.0014 253.483 61.7254C254.889 59.4494 256.823 57.6611 259.283 56.3605C261.744 55.0599 264.536 54.4097 267.66 54.4097C270.785 54.4097 273.57 55.0599 276.014 56.3605C278.452 57.6611 280.373 59.4494 281.779 61.7254C283.185 64.0014 283.908 66.6025 283.947 69.5288C283.947 72.419 283.236 75.0021 281.814 77.2781C280.385 79.5541 278.452 81.3424 276.014 82.643C273.57 83.9435 270.785 84.5938 267.66 84.5938ZM267.66 80.8005C269.926 80.8005 271.957 80.3128 273.753 79.3373C275.55 78.3619 276.956 77.0252 277.971 75.3272C278.987 73.6293 279.494 71.6965 279.494 69.5288C279.494 67.3612 278.987 65.4176 277.971 63.6979C276.956 61.9855 275.55 60.6416 273.753 59.6661C271.957 58.6907 269.926 58.203 267.66 58.203C265.395 58.203 263.364 58.6907 261.568 59.6661C259.771 60.6416 258.357 61.9855 257.326 63.6979C256.287 65.4176 255.768 67.3612 255.768 69.5288C255.768 71.6965 256.287 73.6293 257.326 75.3272C258.357 77.0252 259.771 78.3619 261.568 79.3373C263.364 80.3128 265.395 80.8005 267.66 80.8005ZM297.186 66.0606H294.609C294.726 63.8208 295.359 61.8157 296.507 60.0455C297.663 58.2752 299.167 56.8844 301.018 55.8728C302.877 54.8612 304.939 54.3555 307.204 54.3555C309.001 54.3555 310.387 54.5903 311.364 55.0599C312.34 55.5296 312.711 56.216 312.477 57.1192C312.321 57.6611 312.059 58.0224 311.692 58.203C311.317 58.3836 310.864 58.4559 310.333 58.4198C309.809 58.3836 309.216 58.3475 308.552 58.3114C306.365 58.1307 304.42 58.3367 302.717 58.9291C301.022 59.5289 299.674 60.4429 298.675 61.6712C297.683 62.8995 297.186 64.3627 297.186 66.0606ZM294.96 84.3229C294.257 84.3229 293.711 84.1422 293.32 83.781C292.929 83.4197 292.734 82.9139 292.734 82.2636V56.7398C292.734 56.0896 292.929 55.5838 293.32 55.2225C293.711 54.8612 294.257 54.6806 294.96 54.6806C295.663 54.6806 296.21 54.8612 296.601 55.2225C296.991 55.5838 297.186 56.0896 297.186 56.7398V82.2636C297.186 82.9139 296.991 83.4197 296.601 83.781C296.21 84.1422 295.663 84.3229 294.96 84.3229ZM338.371 85.1899C334.817 85.1899 331.661 84.5577 328.904 83.2933C326.154 82.0288 324.006 80.2766 322.459 78.0368C320.921 75.7969 320.151 73.2319 320.151 70.3417V44.1134C320.151 43.4993 320.366 42.9935 320.796 42.5961C321.225 42.1987 321.772 42 322.436 42C323.1 42 323.647 42.1987 324.076 42.5961C324.506 42.9935 324.721 43.4993 324.721 44.1134V70.3417C324.721 72.4732 325.295 74.3518 326.443 75.9775C327.599 77.6032 329.212 78.8785 331.282 79.8034C333.352 80.721 335.715 81.1798 338.371 81.1798C340.987 81.1798 343.311 80.721 345.342 79.8034C347.373 78.8785 348.962 77.6032 350.111 75.9775C351.267 74.3518 351.845 72.4732 351.845 70.3417V44.1134C351.845 43.4993 352.06 42.9935 352.489 42.5961C352.919 42.1987 353.466 42 354.13 42C354.833 42 355.387 42.1987 355.793 42.5961C356.207 42.9935 356.414 43.4993 356.414 44.1134V70.3417C356.414 73.2319 355.641 75.7969 354.094 78.0368C352.556 80.2766 350.427 82.0288 347.709 83.2933C344.998 84.5577 341.886 85.1899 338.371 85.1899ZM391.26 57.6611L371.224 74.406L368.482 71.6423L388.506 54.8974C388.975 54.5 389.463 54.3085 389.971 54.3229C390.486 54.3446 390.955 54.5722 391.377 55.0057C391.806 55.4393 392.013 55.8981 391.998 56.3822C391.974 56.8735 391.728 57.2998 391.26 57.6611ZM369.76 84.3229C369.103 84.3229 368.568 84.1314 368.154 83.7485C367.74 83.3727 367.533 82.8778 367.533 82.2636V44.0592C367.533 43.4451 367.74 42.9465 368.154 42.5636C368.568 42.1879 369.103 42 369.76 42C370.424 42 370.963 42.1879 371.377 42.5636C371.791 42.9465 371.997 43.4451 371.997 44.0592V82.2636C371.997 82.8778 371.791 83.3727 371.377 83.7485C370.963 84.1314 370.424 84.3229 369.76 84.3229ZM391.435 84.0519C390.928 84.4493 390.404 84.6227 389.865 84.5722C389.311 84.5143 388.838 84.2506 388.448 83.781L375.384 68.9327L378.547 66.3316L391.728 81.3424C392.119 81.7759 392.295 82.2347 392.256 82.7188C392.224 83.2102 391.951 83.6545 391.435 84.0519ZM405.495 66.0606H402.918C403.035 63.8208 403.672 61.8157 404.828 60.0455C405.976 58.2752 407.479 56.8844 409.339 55.8728C411.19 54.8612 413.248 54.3555 415.513 54.3555C417.31 54.3555 418.696 54.5903 419.673 55.0599C420.649 55.5296 421.02 56.216 420.786 57.1192C420.63 57.6611 420.368 58.0224 420.001 58.203C419.626 58.3836 419.177 58.4559 418.653 58.4198C418.122 58.3836 417.525 58.3475 416.861 58.3114C414.674 58.1307 412.732 58.3367 411.037 58.9291C409.335 59.5289 407.987 60.4429 406.995 61.6712C405.995 62.8995 405.495 64.3627 405.495 66.0606ZM403.269 84.3229C402.566 84.3229 402.02 84.1422 401.629 83.781C401.238 83.4197 401.043 82.9139 401.043 82.2636V56.7398C401.043 56.0896 401.238 55.5838 401.629 55.2225C402.02 54.8612 402.566 54.6806 403.269 54.6806C403.972 54.6806 404.519 54.8612 404.91 55.2225C405.3 55.5838 405.495 56.0896 405.495 56.7398V82.2636C405.495 82.9139 405.3 83.4197 404.91 83.781C404.519 84.1422 403.972 84.3229 403.269 84.3229Z" stroke="#EC6608" stroke-width="2" mask="url(#path-1-outside-1_290_319)"/>
<path d="M488.14 69.6462L488.14 69.6529C488.14 72.6297 487.403 75.3063 485.919 77.668C484.45 80.0204 482.45 81.8682 479.931 83.2084C477.413 84.5523 474.549 85.2178 471.354 85.2178C468.158 85.2178 465.284 84.5521 462.743 83.209C460.207 81.8686 458.206 80.0198 456.751 77.6649C455.293 75.3036 454.568 72.6281 454.568 69.6529C454.568 66.6428 455.292 63.9489 456.751 61.5866C458.206 59.2317 460.207 57.3829 462.743 56.0425C465.284 54.6994 468.158 54.0337 471.354 54.0337C474.549 54.0337 477.413 54.6993 479.931 56.0431L488.14 69.6462ZM488.14 69.6462C488.1 66.6381 487.356 63.9468 485.898 61.5866C484.444 59.2327 482.452 57.3841 479.932 56.0434L488.14 69.6462ZM522.561 75.1616L522.562 75.1594C523.55 73.5302 524.048 71.699 524.048 69.6529C524.048 67.5688 523.549 65.7279 522.563 64.1154L522.562 64.114C521.578 62.4933 520.229 61.2061 518.507 60.2498L522.561 75.1616ZM522.561 75.1616C521.576 76.803 520.229 78.0883 518.509 79.022C516.794 79.9535 514.846 80.4245 512.655 80.4245C510.505 80.4245 508.577 79.9541 506.86 79.022C505.141 78.0887 503.802 76.8043 502.834 75.1645L502.833 75.1637M522.561 75.1616L502.833 75.1637M502.833 75.1637C501.867 73.534 501.38 71.7012 501.38 69.6529C501.38 67.5667 501.868 65.7242 502.832 64.1111C503.801 62.4918 505.141 61.2053 506.863 60.2493C508.58 59.3039 510.506 58.827 512.655 58.827C514.844 58.827 516.79 59.3045 518.505 60.249L502.833 75.1637ZM471.354 80.4245C473.545 80.4245 475.492 79.9535 477.208 79.022C478.929 78.0878 480.268 76.8131 481.236 75.1946C482.2 73.5815 482.688 71.739 482.688 69.6529C482.688 67.5671 482.2 65.7129 481.235 64.077L471.354 80.4245ZM471.354 80.4245C469.163 80.4245 467.216 79.9535 465.5 79.022C463.778 78.0873 462.426 76.8112 461.435 75.1903C460.456 73.578 459.962 71.737 459.962 69.6529C459.962 67.5687 460.456 65.7156 461.436 64.0801C462.428 62.4456 463.78 61.1635 465.5 60.2296C467.216 59.2981 469.163 58.827 471.354 58.827C473.545 58.827 475.492 59.2981 477.208 60.2296C478.927 61.163 480.266 62.4439 481.234 64.0762L471.354 80.4245ZM438.282 41.624H424.897C424.17 41.624 423.533 41.8375 423.035 42.2989C422.532 42.7636 422.288 43.3709 422.288 44.0749C422.288 44.7532 422.54 45.3388 423.035 45.7967C423.533 46.2581 424.17 46.4716 424.897 46.4716H438.282V82.3335C438.282 83.0584 438.568 83.6841 439.11 84.1853C439.657 84.6911 440.317 84.9469 441.066 84.9469C441.845 84.9469 442.521 84.6969 443.054 84.1777C443.578 83.675 443.851 83.0515 443.851 82.3335V46.4716H457.294C458.021 46.4716 458.658 46.2581 459.157 45.7967C459.652 45.3388 459.903 44.7532 459.903 44.0749C459.903 43.3709 459.659 42.7636 459.157 42.2989C458.658 41.8375 458.021 41.624 457.294 41.624H443.851H443.351H438.782H438.282ZM496.694 96.9277L496.694 96.9278L496.701 96.9342C497.229 97.4133 497.918 97.6275 498.712 97.6275C499.476 97.6275 500.141 97.4087 500.657 96.931C501.189 96.4386 501.439 95.7803 501.439 95.0141V80.4466C502.641 81.726 504.111 82.7824 505.841 83.618C508.048 84.6874 510.498 85.2178 513.183 85.2178C516.265 85.2178 519.045 84.5394 521.509 83.1719C523.966 81.8159 525.912 79.9602 527.341 77.6086C528.783 75.2486 529.5 72.5922 529.5 69.6529C529.5 66.6764 528.763 64.0002 527.28 61.6387C525.81 59.2858 523.803 57.4275 521.269 56.0658L521.268 56.0652C518.727 54.707 515.852 54.0337 512.655 54.0337C509.535 54.0337 506.708 54.7003 504.184 56.0431L504.183 56.0434C501.672 57.3832 499.674 59.2192 498.196 61.5491L498.195 61.5508C496.722 63.8944 495.968 66.5247 495.928 69.4292V69.4361V95.0141C495.928 95.7773 496.171 96.4346 496.694 96.9277Z" fill="#485156" stroke="#485156"/>
<path d="M65 130C100.899 130 130 100.899 130 65C130 29.1015 100.899 0 65 0C29.1015 0 0 29.1015 0 65C0 100.899 29.1015 130 65 130Z" fill="white"/>
<path d="M117.477 26.5367C105.7 10.4358 86.617 0 65.0001 0C33.6927 0 7.45418 22.2133 1.3418 51.8807C42.1904 51.7317 81.6973 43.0849 117.477 26.5367Z" fill="#EC6608"/>
<path d="M0.149048 66.7883C0.149048 67.981 0.298131 69.0245 0.298131 70.0681H129.851C130 68.4282 130 66.6392 130 64.9993C130 56.0544 128.211 47.4076 124.782 39.6553C86.4679 57.5452 44.1284 66.7883 0.447214 66.7883C0.447214 66.7883 0.29813 66.7883 0.149048 66.7883Z" fill="#EC6608"/>
<path d="M10.2867 99.8857C21.7661 117.925 42.0413 130 65.0001 130C88.1078 130 108.234 117.925 119.862 99.8857H10.2867Z" fill="#485156"/>
</g>
<defs>
<clipPath id="clip0_290_319">
<rect width="529" height="131" fill="white"/>
</clipPath>
</defs>
</svg>
