<?xml version="1.0" encoding="utf-8"?>
<!-- Generator: Adobe Illustrator 19.0.0, SVG Export Plug-In . SVG Version: 6.00 Build 0)  -->
<svg version="1.1" xmlns="http://www.w3.org/2000/svg" xmlns:xlink="http://www.w3.org/1999/xlink" x="0px" y="0px" width="560.5px"
	 height="117.3px" viewBox="0 0 560.5 117.3" style="enable-background:new 0 0 560.5 117.3;" xml:space="preserve">
<style type="text/css">
	.st0{fill:#EC6608;}
	.st1{fill:#485156;}
	.st2{fill:#FFFFFF;}
	.st3{fill:none;}
	.st4{display:none;}
	.st5{display:inline;fill:none;stroke:#E6007E;stroke-miterlimit:10;}
</style>
<g id="Layer_1">
	<path class="st0" d="M135.1,35.6h35.8v5.2h-30.2v17.8h27v5.1h-27v21.7h-5.6V35.6z"/>
	<path class="st0" d="M177.5,35.6h5.6v44.6h28v5.2h-33.7V35.6z"/>
	<path class="st0" d="M212.2,60.5c0-13.7,10.3-25.8,25.5-25.8c15.2,0,25.3,11.9,25.3,25.8c0,13.7-10.3,25.8-25.5,25.8
		C222.4,86.3,212.2,74.4,212.2,60.5z M257.2,60.5c0-11.3-8.3-20.6-19.6-20.6c-11.4,0-19.5,9.1-19.5,20.6c0,11.3,8.3,20.6,19.6,20.6
		S257.2,72,257.2,60.5z"/>
	<path class="st0" d="M265.6,60.5c0-13.7,10.3-25.8,25.5-25.8c15.2,0,25.3,11.9,25.3,25.8c0,13.7-10.3,25.8-25.5,25.8
		C275.8,86.3,265.6,74.4,265.6,60.5z M310.6,60.5c0-11.3-8.3-20.6-19.6-20.6c-11.4,0-19.5,9.1-19.5,20.6c0,11.3,8.3,20.6,19.6,20.6
		C302.5,81.1,310.6,72,310.6,60.5z"/>
	<path class="st0" d="M319.8,35.6h21.4c6.1,0,11,1.9,14.2,5c2.4,2.4,3.8,5.9,3.8,10c0,8.3-5.7,13.1-13.5,14.5L361,85.4h-6.9
		l-14.4-19.4h-14.2v19.4h-5.6V35.6z M340.7,61c7.5,0,12.8-3.8,12.8-10.4c0-6.1-4.7-9.8-12.7-9.8h-15.4V61H340.7z"/>
	<g>
		<path class="st1" d="M364.1,35.6h21.2c5.7,0,10.3,1.6,13,4.4c2.1,2.1,3.2,4.8,3.2,8.1c0,6.5-4,9.8-7.9,11.5
			c5.9,1.8,10.7,5.2,10.7,12.2c0,8.5-7.2,13.6-18.1,13.6h-22.1V35.6z M384.4,57.8c6.8,0,11.5-3.1,11.5-9c0-4.9-3.9-8.1-11-8.1h-15.2
			v17.2H384.4z M386.4,80.4c7.5,0,12.2-3.3,12.2-9c0-5.4-4.6-8.5-13.2-8.5h-15.7v17.6H386.4z"/>
		<path class="st1" d="M411.2,35.6h36v5.1h-30.4v17H444v5.1h-27.2v17.4h30.7v5.1h-36.4V35.6z"/>
		<path class="st1" d="M451.4,78.2l3.5-4.1c5.2,4.7,10.2,7,17.1,7c6.7,0,11.1-3.6,11.1-8.6c0-4.6-2.5-7.3-13-9.5
			c-11.5-2.5-16.7-6.2-16.7-14.5c0-7.8,6.9-13.6,16.4-13.6c7.3,0,12.5,2.1,17.5,6.1l-3.3,4.3c-4.6-3.8-9.3-5.4-14.4-5.4
			c-6.5,0-10.6,3.6-10.6,8.2c0,4.7,2.6,7.3,13.5,9.7c11.1,2.4,16.2,6.5,16.2,14.2c0,8.5-7.1,14.1-17,14.1
			C463.8,86.1,457.4,83.5,451.4,78.2z"/>
		<path class="st1" d="M508,40.8h-16.7v-5.2h39.1v5.2h-16.7v44.6H508V40.8z"/>
	</g>
	<g>
		<circle class="st2" cx="74" cy="61.7" r="43.6"/>
		<path class="st0" d="M109.2,35.9C101.3,25.1,88.5,18.1,74,18.1C53,18.1,35.4,33,31.3,52.9C58.7,52.8,85.2,47,109.2,35.9z"/>
		<path class="st0" d="M30.5,62.9c0,0.8,0.1,1.5,0.1,2.2h86.9c0.1-1.1,0.1-2.3,0.1-3.4c0-6-1.2-11.8-3.5-17
			c-25.7,12-54.1,18.2-83.4,18.2C30.7,62.9,30.6,62.9,30.5,62.9z"/>
		<circle class="st3" cx="74" cy="61.7" r="43.6"/>
		<path class="st1" d="M37.3,85.1C45,97.2,58.6,105.3,74,105.3c15.5,0,29-8.1,36.8-20.2H37.3z"/>
	</g>
</g>
<g id="Layer_2" class="st4">
	<rect x="-935.4" y="5040.3" class="st5" width="500" height="300"/>
	<rect x="-5349.4" y="2192.3" class="st5" width="500" height="300"/>
	<rect x="-5349.4" y="2912.6" class="st5" width="500" height="300"/>
	<rect x="-5349.4" y="3608.6" class="st5" width="500" height="300"/>
	<rect x="-5349.4" y="4346.2" class="st5" width="500" height="300"/>
	<rect x="-5349.4" y="5045.3" class="st5" width="500" height="300"/>
	<rect x="-4242.3" y="5045.3" class="st5" width="500" height="300"/>
	<rect x="-3117.2" y="5045.3" class="st5" width="500" height="300"/>
	<rect x="-2022.1" y="5045.3" class="st5" width="500" height="300"/>
	<rect x="-4241.1" y="4346.2" class="st5" width="500" height="300"/>
	<rect x="-3118.2" y="4346.2" class="st5" width="500" height="300"/>
	<rect x="-2026.2" y="4346.2" class="st5" width="500" height="300"/>
	<rect x="-950.2" y="4346.2" class="st5" width="500" height="300"/>
	<rect x="-4247.4" y="2912.6" class="st5" width="500" height="300"/>
	<rect x="-4247.4" y="3609.3" class="st5" width="500" height="300"/>
	<rect x="-3130.3" y="3609.3" class="st5" width="500" height="300"/>
	<rect x="-2030.3" y="3609.3" class="st5" width="500" height="300"/>
	<rect x="-954.3" y="3609.3" class="st5" width="500" height="300"/>
	<rect x="-3131.2" y="2912.6" class="st5" width="500" height="300"/>
	<rect x="-2040.5" y="2912.6" class="st5" width="500" height="300"/>
	<rect x="-966.8" y="2912.6" class="st5" width="500" height="300"/>
	<rect x="-4247.4" y="2192.3" class="st5" width="500" height="300"/>
	<rect x="-3131.2" y="2192.3" class="st5" width="500" height="300"/>
	<rect x="-2040.5" y="2192.3" class="st5" width="500" height="300"/>
	<rect x="-966.8" y="2192.3" class="st5" width="500" height="300"/>
</g>
</svg>
