<?xml version="1.0" encoding="iso-8859-1"?>
<!DOCTYPE svg PUBLIC "-//W3C//DTD SVG 1.1//EN" "http://www.w3.org/Graphics/SVG/1.1/DTD/svg11.dtd">
<svg xmlns="http://www.w3.org/2000/svg" xmlns:xlink="http://www.w3.org/1999/xlink" version="1.1" viewBox="0 0 512 512" enable-background="new 0 0 512 512" width="512px" height="512px">
  <path d="m510.616,249.5l-63.999-143.997c-2.563-5.773-8.297-9.5-14.617-9.5h-31.677c-0.026,0-0.053,0.001-0.079,0h-99.189c-4.833-13.554-15.497-24.218-29.051-29.051v-50.947c0-8.836-7.164-16-16-16-8.836,0-16,7.164-16,16v50.947c-13.554,4.833-24.218,15.497-29.051,29.051h-99.163c-0.051,0.001-0.098-0.001-0.148,0h-31.634c-6.32,0-12.054,3.727-14.617,9.5l-63.998,143.997c-1.463,3.246-1.788,6.856-0.906,10.383l16,63.999c1.781,7.117 8.18,12.117 15.523,12.117h127.997c7.344,0 13.742-5 15.523-12.117l16-63.999c0.865-3.461 0.489-7.18-0.906-10.383l-53.999-121.497h74.33c4.833,13.554 15.496,24.217 29.05,29.05v268.318l-59.311,59.311c-4.578,4.578-5.945,11.453-3.469,17.437 2.477,5.977 8.312,9.875 14.781,9.875h127.997c6.469,0 12.304-3.898 14.781-9.875 2.477-5.984 1.109-12.859-3.469-17.437l-59.311-59.311v-268.317c13.554-4.833 24.218-15.497 29.051-29.051h74.329l-53.999,121.497c-1.405,3.208-1.773,6.913-0.906,10.383l16,63.999c1.781,7.117 8.179,12.117 15.523,12.117h127.997c7.344,0 13.742-5 15.523-12.117l16-63.999c0.876-3.505 0.534-7.151-0.906-10.383zm-363.102,54.499h-103.013l-8-31.999h119.013l-8,31.999zm3.875-63.999h-110.762l49.779-111.997h11.207l49.776,111.997zm129.99,239.995h-50.749l25.374-25.374 25.375,25.374zm-25.375-351.992c-8.82,0-16-7.179-16-16s7.18-16 16-16c8.82,0 16,7.179 16,16s-7.18,16-16,16zm154.391,0h11.207l49.779,111.997h-110.762l49.776-111.997zm57.112,175.996h-103.013l-8-31.999h119.013l-8,31.999z" fill="#FFFFFF"/>
</svg>
